<svg width="25" height="24" viewBox="0 0 25 24" fill="none" xmlns="http://www.w3.org/2000/svg">
<g clip-path="url(#clip0_401_372)">
<g clip-path="url(#clip1_401_372)">
<path d="M11.22 24C12.7959 24.0003 14.3565 23.6901 15.8125 23.0872C17.2685 22.4843 18.5915 21.6006 19.7059 20.4863C20.8204 19.3721 21.7044 18.0492 22.3075 16.5933C22.9106 15.1374 23.2211 13.5769 23.2211 12.001C23.2211 8.81817 21.9567 5.76565 19.7061 3.51502C17.4554 1.26439 14.4029 0 11.22 0L0.5 0L0.5 24H11.22ZM11.428 4.57499C12.5087 4.57639 13.5761 4.8134 14.5559 5.2695C15.5357 5.7256 16.4042 6.38983 17.101 7.21592C17.7979 8.042 18.3062 9.01008 18.5906 10.0527C18.8751 11.0953 18.9288 12.1874 18.748 13.2529C18.1532 16.863 14.8842 19.425 11.2263 19.425H6.02742L6.02742 16.8443H11.4342C13.7217 16.8443 15.8241 15.32 16.3149 13.0803C16.4756 12.369 16.4742 11.6306 16.3107 10.9199C16.1472 10.2091 15.8259 9.54433 15.3705 8.97471C14.9151 8.40508 14.3374 7.94524 13.6801 7.62928C13.0228 7.31332 12.3028 7.14933 11.5736 7.14947L6.02326 7.14947V4.57499L11.428 4.57499ZM6.17507 12.6852L14.9736 12.6852C14.8145 13.4698 14.3891 14.1754 13.7695 14.6824C13.1499 15.1894 12.3742 15.4668 11.5736 15.4676L5.07499 15.4676L6.17507 12.6852ZM5.07499 8.52612L11.5736 8.52612C12.3742 8.52692 13.1499 8.80431 13.7695 9.31135C14.3891 9.81839 14.8145 10.5239 14.9736 11.3086L6.17507 11.3086L5.07499 8.52612ZM1.88082 1.38082L6.6908 1.38082V2.99246L4.45113 2.99246L4.45113 7.15155L3.0308 7.15155L4.69444 11.3106H1.88082L1.88082 1.38082ZM6.6908 22.6192H1.88082L1.88082 12.6852H4.6882L3.02456 16.8443H4.45113L4.45113 21.0034H6.6908V22.6192Z" fill="#AAB2AD"/>
</g>
</g>
<defs>
<clipPath id="clip0_401_372">
<rect width="24" height="24" fill="white" transform="translate(0.5)"/>
</clipPath>
<clipPath id="clip1_401_372">
<rect width="22.7211" height="24" fill="white" transform="translate(0.5)"/>
</clipPath>
</defs>
</svg>
