<svg width="108" height="35" viewBox="0 0 108 35" fill="none" xmlns="http://www.w3.org/2000/svg">
<path d="M39.4206 24.1064H34.2643V9.56096H39.4632C40.9263 9.56096 42.1857 9.85215 43.2416 10.4345C44.2975 11.0122 45.1095 11.8432 45.6777 12.9274C46.2506 14.0117 46.5371 15.3091 46.5371 16.8195C46.5371 18.3346 46.2506 19.6367 45.6777 20.7257C45.1095 21.8147 44.2927 22.6504 43.2274 23.2328C42.1668 23.8152 40.8978 24.1064 39.4206 24.1064ZM37.3396 21.4715H39.2927C40.2018 21.4715 40.9665 21.3105 41.5868 20.9885C42.2118 20.6618 42.6805 20.1576 42.993 19.4757C43.3103 18.7892 43.4689 17.9038 43.4689 16.8195C43.4689 15.7447 43.3103 14.8664 42.993 14.1845C42.6805 13.5027 42.2141 13.0008 41.5939 12.6789C40.9736 12.3569 40.2089 12.1959 39.2998 12.1959H37.3396V21.4715ZM50.9103 24.1064L47.9415 13.1973H51.0026L52.6929 20.5269H52.7924L54.5537 13.1973H57.558L59.3478 20.4843H59.4401L61.102 13.1973H64.156L61.1944 24.1064H57.9912L56.1162 17.2456H55.9813L54.1063 24.1064H50.9103ZM68.8808 24.3124C68.1848 24.3124 67.5645 24.1916 67.02 23.9502C66.4755 23.704 66.0446 23.3417 65.7274 22.8635C65.4149 22.3806 65.2586 21.7792 65.2586 21.0595C65.2586 20.4535 65.3699 19.9445 65.5925 19.5326C65.815 19.1206 66.118 18.7892 66.5015 18.5382C66.8851 18.2873 67.3207 18.0979 67.8084 17.9701C68.3008 17.8422 68.8169 17.7522 69.3567 17.7002C69.9911 17.6339 70.5025 17.5723 70.8907 17.5155C71.279 17.454 71.5607 17.364 71.7359 17.2456C71.9111 17.1272 71.9987 16.9521 71.9987 16.7201V16.6774C71.9987 16.2276 71.8567 15.8796 71.5726 15.6334C71.2932 15.3872 70.8955 15.2641 70.3794 15.2641C69.8349 15.2641 69.4016 15.3848 69.0797 15.6263C68.7577 15.863 68.5446 16.1613 68.4405 16.5212L65.6422 16.2939C65.7842 15.631 66.0636 15.0581 66.4802 14.5752C66.8969 14.0875 67.4343 13.7134 68.0925 13.453C68.7553 13.1879 69.5224 13.0553 70.3936 13.0553C70.9996 13.0553 71.5797 13.1263 72.1336 13.2683C72.6924 13.4104 73.1871 13.6306 73.618 13.9289C74.0536 14.2272 74.3969 14.6107 74.6478 15.0794C74.8988 15.5434 75.0243 16.0998 75.0243 16.7485V24.1064H72.155V22.5936H72.0697C71.8945 22.9345 71.6602 23.2352 71.3666 23.4956C71.073 23.7513 70.7203 23.9525 70.3084 24.0993C69.8964 24.2414 69.4206 24.3124 68.8808 24.3124ZM69.7473 22.2243C70.1924 22.2243 70.5853 22.1367 70.9263 21.9615C71.2672 21.7816 71.5347 21.5401 71.7288 21.2371C71.9229 20.9341 72.02 20.5908 72.02 20.2073V19.0496C71.9253 19.1111 71.7951 19.168 71.6294 19.2201C71.4684 19.2674 71.2861 19.3124 71.0825 19.355C70.8789 19.3929 70.6753 19.4284 70.4717 19.4615C70.2681 19.4899 70.0835 19.516 69.9177 19.5397C69.5626 19.5917 69.2525 19.6746 68.9873 19.7882C68.7222 19.9019 68.5162 20.0558 68.3694 20.2499C68.2227 20.4393 68.1493 20.676 68.1493 20.9601C68.1493 21.372 68.2984 21.6869 68.5967 21.9047C68.8997 22.1178 69.2833 22.2243 69.7473 22.2243ZM86.4483 16.3081L83.6784 16.4786C83.631 16.2418 83.5292 16.0288 83.373 15.8394C83.2167 15.6452 83.0108 15.4914 82.7551 15.3777C82.5041 15.2594 82.2035 15.2002 81.8531 15.2002C81.3844 15.2002 80.989 15.2996 80.667 15.4985C80.3451 15.6926 80.1841 15.953 80.1841 16.2797C80.1841 16.5401 80.2882 16.7603 80.4966 16.9402C80.7049 17.1201 81.0624 17.2646 81.569 17.3735L83.5434 17.7712C84.6041 17.989 85.3948 18.3394 85.9156 18.8223C86.4364 19.3053 86.6969 19.9397 86.6969 20.7257C86.6969 21.4407 86.4862 22.0681 86.0648 22.6078C85.6481 23.1476 85.0752 23.569 84.346 23.872C83.6216 24.1703 82.7859 24.3195 81.8389 24.3195C80.3948 24.3195 79.2442 24.0188 78.3872 23.4175C77.5349 22.8114 77.0354 21.9876 76.8886 20.9459L79.8645 20.7897C79.9544 21.23 80.1722 21.5662 80.5179 21.7982C80.8635 22.0254 81.3062 22.1391 81.846 22.1391C82.3763 22.1391 82.8024 22.0373 83.1244 21.8337C83.4511 21.6254 83.6168 21.3578 83.6216 21.0311C83.6168 20.7565 83.5008 20.5316 83.2736 20.3564C83.0463 20.1765 82.6959 20.0392 82.2224 19.9445L80.3332 19.5681C79.2679 19.355 78.4748 18.9857 77.954 18.4601C77.4379 17.9345 77.1798 17.2646 77.1798 16.4502C77.1798 15.7494 77.3692 15.1457 77.748 14.6391C78.1315 14.1325 78.6689 13.7418 79.3602 13.4672C80.0562 13.1926 80.8706 13.0553 81.8034 13.0553C83.1812 13.0553 84.2655 13.3465 85.0562 13.9289C85.8517 14.5112 86.3157 15.3043 86.4483 16.3081ZM94.4046 13.1973V15.4701H87.835V13.1973H94.4046ZM89.3265 10.5837H92.352V20.7541C92.352 21.0335 92.3947 21.2513 92.4799 21.4076C92.5651 21.5591 92.6835 21.6656 92.835 21.7272C92.9912 21.7887 93.1712 21.8195 93.3748 21.8195C93.5168 21.8195 93.6589 21.8076 93.8009 21.784C93.9429 21.7556 94.0519 21.7343 94.1276 21.7201L94.6035 23.9715C94.4519 24.0188 94.2389 24.0733 93.9643 24.1348C93.6896 24.2011 93.3558 24.2414 92.9628 24.2556C92.2337 24.284 91.5945 24.1869 91.0452 23.9644C90.5007 23.7418 90.0769 23.3962 89.7739 22.9274C89.4709 22.4587 89.3217 21.8668 89.3265 21.1519V10.5837ZM101.23 24.3195C100.108 24.3195 99.1418 24.0922 98.3322 23.6377C97.5272 23.1784 96.907 22.5297 96.4714 21.6916C96.0358 20.8488 95.8179 19.8522 95.8179 18.7016C95.8179 17.5794 96.0358 16.5946 96.4714 15.747C96.907 14.8995 97.5201 14.239 98.3108 13.7655C99.1063 13.292 100.039 13.0553 101.109 13.0553C101.829 13.0553 102.499 13.1713 103.119 13.4033C103.744 13.6306 104.289 13.9738 104.753 14.4331C105.221 14.8924 105.586 15.4701 105.846 16.1661C106.107 16.8574 106.237 17.667 106.237 18.5951V19.426H97.0253V17.551H103.389C103.389 17.1154 103.294 16.7295 103.105 16.3933C102.915 16.0572 102.653 15.7944 102.317 15.605C101.985 15.4109 101.599 15.3138 101.159 15.3138C100.7 15.3138 100.292 15.4203 99.9373 15.6334C99.5869 15.8417 99.3123 16.1235 99.1134 16.4786C98.9145 16.829 98.8127 17.2196 98.808 17.6504V19.4331C98.808 19.9729 98.9074 20.4393 99.1063 20.8323C99.3099 21.2253 99.5964 21.5283 99.9657 21.7414C100.335 21.9544 100.773 22.061 101.28 22.061C101.616 22.061 101.924 22.0136 102.203 21.9189C102.482 21.8242 102.721 21.6822 102.92 21.4928C103.119 21.3034 103.271 21.0714 103.375 20.7968L106.173 20.9814C106.031 21.6538 105.74 22.2409 105.299 22.7428C104.864 23.2399 104.3 23.6282 103.609 23.9076C102.923 24.1822 102.13 24.3195 101.23 24.3195Z" fill="white"/>
<path d="M10.0119 30.7111C9.43809 30.7481 9.02505 32.4205 7.63282 31.6167C7.5018 30.0446 7.91641 26.8768 8.37545 25.6224C6.51975 23.9755 4.56977 18.6183 10.2203 12.3221C17.2835 4.45181 23.5629 3.79524 23.9308 4.0767C24.2987 4.35816 21.0782 10.5103 20.1442 18.6732C19.3971 25.2036 13.6048 26.8229 10.8021 26.8162C10.9161 25.6619 11.2816 23.184 11.8315 22.507C12.5008 21.6831 15.8126 19.112 16.7863 18.8642C15.8271 19.0631 13.7506 19.6827 12.5399 20.7059C12.7932 19.5399 13.4771 17.0617 14.1862 16.4765C15.0697 15.7474 18.3673 13.4613 18.8812 13.3892C17.9004 13.5157 15.7678 13.9661 15.0437 14.7616C16.222 12.7583 18.797 8.61477 19.8528 7.74878C18.1847 9.05573 14.5208 12.5788 12.6934 16.6507C12.347 16.1513 11.843 14.5435 12.5987 12.1068C11.8642 13.7086 10.6333 17.3812 11.5862 19.2574C10.9146 20.8035 9.57507 24.1187 9.59005 25.0114C9.31021 26.1851 9.0028 28.9682 10.0119 30.7111Z" fill="white"/>
</svg>
